# xmcd CD database file
#
# Track frame offsets:
#	182
#	17180
#	29797
#	50445
#	70822
#	81192
#	108715
#	125467
#	147342
#
# Disc length: 2221 seconds
#
# Revision: 0
# Processed by: cddbd v1.5.2PL0 Copyright (c) Steve Scherf et al.
# Submitted via: CDex 1.50
#
DISCID=8308ab09
DTITLE=Curtis Fuller - The Soul Of Jazz Percussion
DYEAR=1960
DGENRE=Jazz
TTITLE0=Chasing The Bird
TTITLE1=November Afternoon
TTITLE2=Quiet Temple
TTITLE3=Witchfire
TTITLE4=Construction Crew
TTITLE5=Ping Pong Beer
TTITLE6=Prophecy
TTITLE7=Wee Tina
TTITLE8=Call To Arms
EXTD=YEAR: 1960
EXTT0=
EXTT1=
EXTT2=
EXTT3=
EXTT4=
EXTT5=
EXTT6=
EXTT7=
EXTT8=
PLAYORDER=
